<svg xmlns="http://www.w3.org/2000/svg" viewBox="0 0 123.9 244.8"><defs><style>.cls-1{fill:none;stroke:#fff;stroke-linecap:round;stroke-linejoin:round;stroke-width:2px;stroke-dasharray:4;opacity:0.9;}.cls-2{opacity:0.1;}.cls-3{fill:#fff;}</style></defs><g id="Layer_2" data-name="Layer 2"><g id="Outlines"><path class="cls-1" d="M73,90.13l29.2,29.19a12.14,12.14,0,0,0,20.73-8.59V62a12.15,12.15,0,0,0-3.56-8.59L70.54,4.56a12.14,12.14,0,0,0-17.18,0L4.56,53.36A12.15,12.15,0,0,0,1,62v48.78a12.14,12.14,0,0,0,20.73,8.59L53.36,87.69A12.12,12.12,0,0,1,62,84.13v46.31"/><g class="cls-2"><path class="cls-3" d="M102.17,241.22,70.54,209.59a12.16,12.16,0,0,0-17.18,0L21.73,241.22A12.14,12.14,0,0,1,1,232.63V62a12.15,12.15,0,0,1,3.56-8.59l48.8-48.8a12.14,12.14,0,0,1,17.18,0l48.8,48.8A12.15,12.15,0,0,1,122.9,62V232.63A12.14,12.14,0,0,1,102.17,241.22Z"/></g><g class="cls-2"><path class="cls-3" d="M102.17,241.22,70.54,209.59a12.16,12.16,0,0,0-17.18,0L21.73,241.22A12.14,12.14,0,0,1,1,232.63V116.7a12.15,12.15,0,0,1,3.56-8.59l48.8-48.8a12.14,12.14,0,0,1,17.18,0l48.8,48.8a12.15,12.15,0,0,1,3.56,8.59V232.63A12.14,12.14,0,0,1,102.17,241.22Z"/></g></g></g></svg>