<svg xmlns="http://www.w3.org/2000/svg" width="21.438" height="21.438" viewBox="0 0 21.438 21.438">
  <g id="Path_54" data-name="Path 54" transform="translate(-170.232 315.701)">
    <path id="Path_74" data-name="Path 74" d="M180.936-315.7a10.639,10.639,0,0,0-7.052,2.661,10.649,10.649,0,0,0-3.628,7.358,10.649,10.649,0,0,0,2.637,7.768,10.648,10.648,0,0,0,7.358,3.628,10.732,10.732,0,0,0,11.4-10,10.726,10.726,0,0,0,0-1.4,10.763,10.763,0,0,0-10-10C181.412-315.693,181.173-315.7,180.936-315.7Zm2.01,19.89a.658.658,0,0,1-.637-.5.657.657,0,0,1,.236-.677l.1-.074a12.224,12.224,0,0,0,3.286-4.266.658.658,0,0,1,.537-.367,9.084,9.084,0,0,0,2.315-.479.657.657,0,0,1,.835.4.655.655,0,0,1-.019.481,9.473,9.473,0,0,1-6.494,5.46A.642.642,0,0,1,182.946-295.811Zm-.006-.686h0Zm6.026-5.066h0Zm-9.474,4.582a.653.653,0,0,1-.353-.1.652.652,0,0,1-.287-.413.659.659,0,0,1,.013-.332l.118-.389h0c.324-1.034.749-2.283,1.268-3.721a.658.658,0,0,1,.809-.405,16.657,16.657,0,0,0,2.6.565.658.658,0,0,1,.561.743.654.654,0,0,1-.091.253,7.829,7.829,0,0,1-4.5,3.786A.659.659,0,0,1,179.492-296.981Zm4.056-4.16h0Zm-6.482,3.1a.656.656,0,0,1-.2-.03.658.658,0,0,1-.363-.282,8.015,8.015,0,0,1-.738-5.459.657.657,0,0,1,.754-.542.654.654,0,0,1,.234.086,17.93,17.93,0,0,0,1.924,1.028l.013.006a.662.662,0,0,1,.333.814c-.551,1.529-1,2.845-1.332,3.913A.662.662,0,0,1,177.066-298.041Zm.023-.676h0Zm-3.258-.537a.657.657,0,0,1-.538-.28,9.294,9.294,0,0,1-1.744-5.448l0-.282a9.361,9.361,0,0,1,.3-2.068.658.658,0,0,1,.8-.476.659.659,0,0,1,.369.247,11.761,11.761,0,0,0,1.522,1.641.654.654,0,0,1,.2.653,12.025,12.025,0,0,0-.26,5.23.657.657,0,0,1-.518.77A.656.656,0,0,1,173.831-299.254Zm.021-.677h0Zm-1.386-7.218h0Zm.048-.014h0Zm12.24,4.168h-.04a15.077,15.077,0,0,1-3.117-.563h0a.652.652,0,0,1-.391-.315.653.653,0,0,1-.054-.5c0-.014.01-.031.016-.047l.016-.042c1.563-4.145,2.526-6.314,2.961-7.238h0a.343.343,0,0,1,.551-.1h0c1.335,1.311,2.063,4.405.68,8.364A.661.661,0,0,1,184.754-302.994Zm-2.963-1.222h0Zm5.775,1.025a.649.649,0,0,1-.344-.1.651.651,0,0,1-.293-.407.657.657,0,0,1,.005-.322c.822-3.008.6-5.932-.584-7.823l-1.093-1.738,1.6,1.289a9.349,9.349,0,0,1,3.488,6.963,2.41,2.41,0,0,1-2.623,2.118A1.013,1.013,0,0,0,187.567-303.191Zm-8.243-1.273a.653.653,0,0,1-.229-.042l-.05-.021a16.358,16.358,0,0,1-2.09-1.185.559.559,0,0,1-.223-.3l-.122-.4a.558.558,0,0,1,.016-.374c1.193-2.913,3.183-5.069,5.224-5.648a.654.654,0,0,1,.5.065.652.652,0,0,1,.3.4.656.656,0,0,1,.02.214l.039.007-.082.186-.013.03-.024.052-.058.131c-.7,1.59-1.624,3.872-2.587,6.427l-.014.037A.657.657,0,0,1,179.324-304.464Zm-4.25-3.046a.652.652,0,0,1-.28-.063.656.656,0,0,1-.207-.154,7.449,7.449,0,0,1-1.363-2.057.655.655,0,0,1,.068-.641,9.41,9.41,0,0,1,7.66-3.958h.057c.123,0,.242.006.343.01l2.062.088-1.979.584c-2.239.66-4.393,2.833-5.763,5.813A.661.661,0,0,1,175.073-307.509Z" fill="#fff"/>
  </g>
</svg>
