<svg xmlns="http://www.w3.org/2000/svg" width="22.46" height="22.361" viewBox="0 0 22.46 22.361">
  <g id="Group_36" data-name="Group 36" transform="translate(-1602.113 -1342.582)">
    <g id="Group_32" data-name="Group 32" transform="translate(1602.613 1358.42)">
      <path id="Path_69" data-name="Path 69" d="M1603.62,1435.729h10.64a1.007,1.007,0,0,0,1.007-1.007v-4.009a1.007,1.007,0,0,0-1.007-1.007h-10.64a1.007,1.007,0,0,0-1.007,1.007v4.009A1.007,1.007,0,0,0,1603.62,1435.729Z" transform="translate(-1602.613 -1429.706)" fill="none" stroke="#fff" stroke-miterlimit="10" stroke-width="1"/>
    </g>
    <g id="Group_33" data-name="Group 33" transform="translate(1602.613 1350.392)">
      <path id="Path_70" data-name="Path 70" d="M1603.62,1390.8h10.64a1.007,1.007,0,0,0,1.007-1.007v-4.42a1.007,1.007,0,0,0-1.007-1.007h-10.64a1.007,1.007,0,0,0-1.007,1.007v4.42A1.007,1.007,0,0,0,1603.62,1390.8Z" transform="translate(-1602.613 -1384.365)" fill="none" stroke="#fff" stroke-miterlimit="10" stroke-width="1"/>
    </g>
    <g id="Group_34" data-name="Group 34" transform="translate(1602.613 1343.082)">
      <path id="Path_71" data-name="Path 71" d="M1603.62,1348.8h19.445a1.007,1.007,0,0,0,1.007-1.007v-3.7a1.007,1.007,0,0,0-1.007-1.007H1603.62a1.007,1.007,0,0,0-1.007,1.007v3.7A1.007,1.007,0,0,0,1603.62,1348.8Z" transform="translate(-1602.613 -1343.082)" fill="none" stroke="#fff" stroke-miterlimit="10" stroke-width="1"/>
    </g>
    <g id="Group_35" data-name="Group 35" transform="translate(1616.861 1350.392)">
      <path id="Path_72" data-name="Path 72" d="M1684.09,1398.417h5.2a1.007,1.007,0,0,0,1.007-1.007v-12.037a1.007,1.007,0,0,0-1.007-1.007h-5.2a1.007,1.007,0,0,0-1.007,1.007v12.037A1.007,1.007,0,0,0,1684.09,1398.417Z" transform="translate(-1683.083 -1384.365)" fill="none" stroke="#fff" stroke-miterlimit="10" stroke-width="1"/>
    </g>
  </g>
</svg>
