<svg xmlns="http://www.w3.org/2000/svg" width="24.267" height="23.931" viewBox="0 0 24.267 23.931">
  <path id="Path_73" data-name="Path 73" d="M1618.343,1534.881c2.711,0,2.718-.893,2.67-1.818a.414.414,0,0,1,.415-.435h1.191a3.889,3.889,0,0,1,1.842.464l5,2.688a.955.955,0,0,1,.472,1.083l-.9,3.443a.956.956,0,0,1-1.382.6l-2.1-1.145a.224.224,0,0,0-.331.215c.182,2.121.994,11.71.994,13.52,0,2.038-2.848,2.065-7.866,2.065s-7.866-.026-7.866-2.065c0-1.81.813-11.4.994-13.52a.224.224,0,0,0-.331-.215l-2.1,1.145a.956.956,0,0,1-1.382-.6l-.9-3.443a.956.956,0,0,1,.472-1.083l5-2.688a3.888,3.888,0,0,1,1.842-.464h1.191a.414.414,0,0,1,.415.435c-.048.924-.041,1.818,2.669,1.818" transform="translate(-1606.209 -1532.128)" fill="none" stroke="#fff" stroke-miterlimit="10" stroke-width="1"/>
</svg>
